{
    "asset" : {
        "generator" : "Khronos glTF Blender I/O v3.4.50",
        "version" : "2.0"
    },
    "scene" : 0,
    "scenes" : [
        {
            "name" : "Scene",
            "nodes" : [
                0
            ]
        }
    ],
    "nodes" : [
        {
            "mesh" : 0,
            "name" : "containerfree_grp",
            "scale" : [
                100,
                100,
                100
            ]
        }
    ],
    "materials" : [
        {
            "doubleSided" : true,
            "emissiveFactor" : [
                1,
                1,
                1
            ],
            "emissiveTexture" : {
                "index" : 0
            },
            "name" : "containerfree_mat.001",
            "normalTexture" : {
                "index" : 1
            },
            "occlusionTexture" : {
                "index" : 2
            },
            "pbrMetallicRoughness" : {
                "baseColorTexture" : {
                    "index" : 3
                },
                "metallicRoughnessTexture" : {
                    "index" : 2
                }
            }
        }
    ],
    "meshes" : [
        {
            "name" : "containerfree",
            "primitives" : [
                {
                    "attributes" : {
                        "POSITION" : 0,
                        "TEXCOORD_0" : 1,
                        "NORMAL" : 2
                    },
                    "indices" : 3,
                    "material" : 0
                }
            ]
        }
    ],
    "textures" : [
        {
            "sampler" : 0,
            "source" : 0
        },
        {
            "sampler" : 0,
            "source" : 1
        },
        {
            "sampler" : 0,
            "source" : 2
        },
        {
            "sampler" : 0,
            "source" : 3
        }
    ],
    "images" : [
        {
            "mimeType" : "image/png",
            "name" : "containerfree_emis",
            "uri" : "containerfree_emis.png"
        },
        {
            "mimeType" : "image/png",
            "name" : "containerfree_norm",
            "uri" : "containerfree_norm.png"
        },
        {
            "mimeType" : "image/png",
            "name" : "containerfree_ao-containerfree_rough-containerfree_metal",
            "uri" : "containerfree_ao-containerfree_rough-containerfree_metal.png"
        },
        {
            "mimeType" : "image/png",
            "name" : "containerfree_bcolor",
            "uri" : "containerfree_bcolor.png"
        }
    ],
    "accessors" : [
        {
            "bufferView" : 0,
            "componentType" : 5126,
            "count" : 11640,
            "max" : [
                0.7974192500114441,
                0.657020092010498,
                0.4865940511226654
            ],
            "min" : [
                -0.7974192500114441,
                0,
                -0.4865940511226654
            ],
            "type" : "VEC3"
        },
        {
            "bufferView" : 1,
            "componentType" : 5126,
            "count" : 11640,
            "type" : "VEC2"
        },
        {
            "bufferView" : 2,
            "componentType" : 5126,
            "count" : 11640,
            "type" : "VEC3"
        },
        {
            "bufferView" : 3,
            "componentType" : 5123,
            "count" : 35979,
            "type" : "SCALAR"
        }
    ],
    "bufferViews" : [
        {
            "buffer" : 0,
            "byteLength" : 139680,
            "byteOffset" : 0,
            "target" : 34962
        },
        {
            "buffer" : 0,
            "byteLength" : 93120,
            "byteOffset" : 139680,
            "target" : 34962
        },
        {
            "buffer" : 0,
            "byteLength" : 139680,
            "byteOffset" : 232800,
            "target" : 34962
        },
        {
            "buffer" : 0,
            "byteLength" : 71958,
            "byteOffset" : 372480,
            "target" : 34963
        }
    ],
    "samplers" : [
        {
            "magFilter" : 9729,
            "minFilter" : 9987
        }
    ],
    "buffers" : [
        {
            "byteLength" : 444440,
            "uri" : "containerfree.bin"
        }
    ]
}
